<svg id="visual" viewBox="0 0 540 960" width="540" height="960" xmlns="http://www.w3.org/2000/svg" xmlns:xlink="http://www.w3.org/1999/xlink" version="1.1"><path d="M458 960L457.2 945.5C456.3 931 454.7 902 461.8 872.8C469 843.7 485 814.3 487.7 785.2C490.3 756 479.7 727 468 698C456.3 669 443.7 640 445.5 611C447.3 582 463.7 553 466.3 523.8C469 494.7 458 465.3 451.7 436.2C445.3 407 443.7 378 443.7 349C443.7 320 445.3 291 442.7 262C440 233 433 204 443 174.8C453 145.7 480 116.3 479 87.2C478 58 449 29 434.5 14.5L420 0L540 0L540 14.5C540 29 540 58 540 87.2C540 116.3 540 145.7 540 174.8C540 204 540 233 540 262C540 291 540 320 540 349C540 378 540 407 540 436.2C540 465.3 540 494.7 540 523.8C540 553 540 582 540 611C540 640 540 669 540 698C540 727 540 756 540 785.2C540 814.3 540 843.7 540 872.8C540 902 540 931 540 945.5L540 960Z" fill="#002c52"></path><path d="M442 960L435.7 945.5C429.3 931 416.7 902 423.8 872.8C431 843.7 458 814.3 460.7 785.2C463.3 756 441.7 727 424.5 698C407.3 669 394.7 640 399.2 611C403.7 582 425.3 553 429.8 523.8C434.3 494.7 421.7 465.3 412.7 436.2C403.7 407 398.3 378 401.2 349C404 320 415 291 416.8 262C418.7 233 411.3 204 416.7 174.8C422 145.7 440 116.3 436.3 87.2C432.7 58 407.3 29 394.7 14.5L382 0L421 0L435.5 14.5C450 29 479 58 480 87.2C481 116.3 454 145.7 444 174.8C434 204 441 233 443.7 262C446.3 291 444.7 320 444.7 349C444.7 378 446.3 407 452.7 436.2C459 465.3 470 494.7 467.3 523.8C464.7 553 448.3 582 446.5 611C444.7 640 457.3 669 469 698C480.7 727 491.3 756 488.7 785.2C486 814.3 470 843.7 462.8 872.8C455.7 902 457.3 931 458.2 945.5L459 960Z" fill="#003667"></path><path d="M285 960L284.2 945.5C283.3 931 281.7 902 292.5 872.8C303.3 843.7 326.7 814.3 332 785.2C337.3 756 324.7 727 308.5 698C292.3 669 272.7 640 273.7 611C274.7 582 296.3 553 301.7 523.8C307 494.7 296 465.3 291.5 436.2C287 407 289 378 296.2 349C303.3 320 315.7 291 311.2 262C306.7 233 285.3 204 286.3 174.8C287.3 145.7 310.7 116.3 319.7 87.2C328.7 58 323.3 29 320.7 14.5L318 0L383 0L395.7 14.5C408.3 29 433.7 58 437.3 87.2C441 116.3 423 145.7 417.7 174.8C412.3 204 419.7 233 417.8 262C416 291 405 320 402.2 349C399.3 378 404.7 407 413.7 436.2C422.7 465.3 435.3 494.7 430.8 523.8C426.3 553 404.7 582 400.2 611C395.7 640 408.3 669 425.5 698C442.7 727 464.3 756 461.7 785.2C459 814.3 432 843.7 424.8 872.8C417.7 902 430.3 931 436.7 945.5L443 960Z" fill="#114983"></path><path d="M237 960L234.2 945.5C231.3 931 225.7 902 235.5 872.8C245.3 843.7 270.7 814.3 275.2 785.2C279.7 756 263.3 727 248 698C232.7 669 218.3 640 222 611C225.7 582 247.3 553 247.3 523.8C247.3 494.7 225.7 465.3 218.5 436.2C211.3 407 218.7 378 233.2 349C247.7 320 269.3 291 263.8 262C258.3 233 225.7 204 218.3 174.8C211 145.7 229 116.3 243.5 87.2C258 58 269 29 274.5 14.5L280 0L319 0L321.7 14.5C324.3 29 329.7 58 320.7 87.2C311.7 116.3 288.3 145.7 287.3 174.8C286.3 204 307.7 233 312.2 262C316.7 291 304.3 320 297.2 349C290 378 288 407 292.5 436.2C297 465.3 308 494.7 302.7 523.8C297.3 553 275.7 582 274.7 611C273.7 640 293.3 669 309.5 698C325.7 727 338.3 756 333 785.2C327.7 814.3 304.3 843.7 293.5 872.8C282.7 902 284.3 931 285.2 945.5L286 960Z" fill="#235e9e"></path><path d="M188 960L190.7 945.5C193.3 931 198.7 902 210.3 872.8C222 843.7 240 814.3 243.7 785.2C247.3 756 236.7 727 219.7 698C202.7 669 179.3 640 180.2 611C181 582 206 553 205 523.8C204 494.7 177 465.3 173.5 436.2C170 407 190 378 206.2 349C222.3 320 234.7 291 228.3 262C222 233 197 204 192.5 174.8C188 145.7 204 116.3 217.5 87.2C231 58 242 29 247.5 14.5L253 0L281 0L275.5 14.5C270 29 259 58 244.5 87.2C230 116.3 212 145.7 219.3 174.8C226.7 204 259.3 233 264.8 262C270.3 291 248.7 320 234.2 349C219.7 378 212.3 407 219.5 436.2C226.7 465.3 248.3 494.7 248.3 523.8C248.3 553 226.7 582 223 611C219.3 640 233.7 669 249 698C264.3 727 280.7 756 276.2 785.2C271.7 814.3 246.3 843.7 236.5 872.8C226.7 902 232.3 931 235.2 945.5L238 960Z" fill="#235e9e"></path><path d="M139 960L138.2 945.5C137.3 931 135.7 902 145.7 872.8C155.7 843.7 177.3 814.3 186.3 785.2C195.3 756 191.7 727 177.2 698C162.7 669 137.3 640 138.2 611C139 582 166 553 166 523.8C166 494.7 139 465.3 129.2 436.2C119.3 407 126.7 378 144.7 349C162.7 320 191.3 291 190.5 262C189.7 233 159.3 204 153.2 174.8C147 145.7 165 116.3 182 87.2C199 58 215 29 223 14.5L231 0L254 0L248.5 14.5C243 29 232 58 218.5 87.2C205 116.3 189 145.7 193.5 174.8C198 204 223 233 229.3 262C235.7 291 223.3 320 207.2 349C191 378 171 407 174.5 436.2C178 465.3 205 494.7 206 523.8C207 553 182 582 181.2 611C180.3 640 203.7 669 220.7 698C237.7 727 248.3 756 244.7 785.2C241 814.3 223 843.7 211.3 872.8C199.7 902 194.3 931 191.7 945.5L189 960Z" fill="#114983"></path><path d="M53 960L52.2 945.5C51.3 931 49.7 902 47 872.8C44.3 843.7 40.7 814.3 42.3 785.2C44 756 51 727 49.2 698C47.3 669 36.7 640 33.2 611C29.7 582 33.3 553 38.7 523.8C44 494.7 51 465.3 49.2 436.2C47.3 407 36.7 378 31.3 349C26 320 26 291 27.8 262C29.7 233 33.3 204 37.8 174.8C42.3 145.7 47.7 116.3 51.2 87.2C54.7 58 56.3 29 57.2 14.5L58 0L232 0L224 14.5C216 29 200 58 183 87.2C166 116.3 148 145.7 154.2 174.8C160.3 204 190.7 233 191.5 262C192.3 291 163.7 320 145.7 349C127.7 378 120.3 407 130.2 436.2C140 465.3 167 494.7 167 523.8C167 553 140 582 139.2 611C138.3 640 163.7 669 178.2 698C192.7 727 196.3 756 187.3 785.2C178.3 814.3 156.7 843.7 146.7 872.8C136.7 902 138.3 931 139.2 945.5L140 960Z" fill="#003667"></path><path d="M0 960L0 945.5C0 931 0 902 0 872.8C0 843.7 0 814.3 0 785.2C0 756 0 727 0 698C0 669 0 640 0 611C0 582 0 553 0 523.8C0 494.7 0 465.3 0 436.2C0 407 0 378 0 349C0 320 0 291 0 262C0 233 0 204 0 174.8C0 145.7 0 116.3 0 87.2C0 58 0 29 0 14.5L0 0L59 0L58.2 14.5C57.3 29 55.7 58 52.2 87.2C48.7 116.3 43.3 145.7 38.8 174.8C34.3 204 30.7 233 28.8 262C27 291 27 320 32.3 349C37.7 378 48.3 407 50.2 436.2C52 465.3 45 494.7 39.7 523.8C34.3 553 30.7 582 34.2 611C37.7 640 48.3 669 50.2 698C52 727 45 756 43.3 785.2C41.7 814.3 45.3 843.7 48 872.8C50.7 902 52.3 931 53.2 945.5L54 960Z" fill="#002c52"></path></svg>